PathFileType	4	(X/Y/Z)	./resultDataOpenSim/trcMotMarkerGrf/sub06/qtm-04-08.trc
DataRate	CameraRate	NumFrames	NumMarkers	Units	OrigDataRate	OrigDataStartFrame	OrigNumFrames
250.000000	250.000000	14	24	m	250.000000	200	531
Frame#	Time	L.Toe.Tip			R.Toe.Tip			L.Ankle.Lat			R.Ankle.Lat			L.Ankle.Med			R.Ankle.Med			L.Heel			R.Heel			L.Knee.Lat			R.Knee.Lat			L.Knee.Med			R.Knee.Med			L.Thigh.Upper			R.Thigh.Upper			L.ASIS			R.ASIS			V.Sacral			L.Acromium			R.Acromium			C7			L.Elbow			R.Elbow			L.Wrist.Lat			R.Wrist.Lat
		X1	Y1	Z1	X2	Y2	Z2	X3	Y3	Z3	X4	Y4	Z4	X5	Y5	Z5	X6	Y6	Z6	X7	Y7	Z7	X8	Y8	Z8	X9	Y9	Z9	X10	Y10	Z10	X11	Y11	Z11	X12	Y12	Z12	X13	Y13	Z13	X14	Y14	Z14	X15	Y15	Z15	X16	Y16	Z16	X17	Y17	Z17	X18	Y18	Z18	X19	Y19	Z19	X20	Y20	Z20	X21	Y21	Z21	X22	Y22	Z22	X23	Y23	Z23	X24	Y24	Z24

200	0.796	0.11556101	-0.039716075	0.014579238	-0.61729685	0.070926759	0.11933918	-0.0068346075	-0.0094444889	-0.0087049807	-0.61104718	0.20811306	0.15434736	-0.0069362974	0.006421523	0.077988398	-0.56636814	0.19200145	0.077177281	-0.082716816	-0.034797105	0.036198218	-0.62465783	0.25582101	0.090060093	0.05428924	0.35628955	-0.048081257	-0.24667318	0.30221524	0.22889857	0.038354703	0.36037254	0.071340482	-0.24404341	0.28540752	0.098024244	-0.123834	0.70791204	-0.12121757	-0.22021095	0.65947479	0.2089436	-0.070533793	0.746002	-0.061978106	-0.11185205	0.72191779	0.17819753	-0.28157351	0.80501791	0.04140144	-0.16446123	1.2053472	-0.15110952	-0.16488476	1.2087088	0.21173895	-0.24523237	1.2475358	0.029330173	-0.25628021	0.9119301	-0.19721692	-0.2037154	0.9097267	0.3417869	-0.18296301	0.6839794	-0.25138003	0.026580312	0.80691169	0.3490477
201	0.8	0.1155434	-0.039757967	0.014466914	-0.60126645	0.074128316	0.12112692	-0.0068262675	-0.0096178531	-0.0088032597	-0.5960099	0.21136682	0.15499649	-0.0068054926	0.0064582573	0.077897278	-0.55205908	0.19563794	0.07756618	-0.082741089	-0.034737777	0.036198266	-0.61053392	0.25867112	0.090555242	0.056800209	0.35541471	-0.048614518	-0.23240305	0.30207123	0.22962199	0.041429975	0.35880716	0.070951864	-0.23090761	0.28666233	0.098554941	-0.11869323	0.70922096	-0.12164503	-0.21351599	0.66055194	0.2085856	-0.065076181	0.74719484	-0.062638144	-0.10610246	0.7232905	0.17794793	-0.27624679	0.80654809	0.039639721	-0.15695198	1.2066543	-0.1512523	-0.15891424	1.2099387	0.21151579	-0.23830833	1.248902	0.028689526	-0.24802902	0.91255701	-0.19757071	-0.19959429	0.91078835	0.34035925	-0.17230737	0.68504848	-0.25068189	0.029585083	0.80525542	0.34972033
202	0.804	0.11551493	-0.039798562	0.014386873	-0.58502761	0.0768821	0.12286844	-0.0068338678	-0.0097531409	-0.0088712105	-0.58083984	0.21422508	0.15561564	-0.0067007276	0.0065005898	0.077827508	-0.53739816	0.19885414	0.07805028	-0.082769831	-0.034677893	0.03620723	-0.5960601	0.26137179	0.091217301	0.059258533	0.35481782	-0.048991781	-0.2180522	0.30233995	0.23022961	0.043786012	0.35742075	0.070795752	-0.21755919	0.28802169	0.098963162	-0.11349331	0.71060956	-0.12201395	-0.20673749	0.66181199	0.20798342	-0.059610419	0.74845428	-0.063212431	-0.10043349	0.7248373	0.17777671	-0.27123437	0.80817821	0.037931581	-0.14950855	1.2080787	-0.15137966	-0.1530564	1.2112954	0.21135312	-0.2314692	1.2503589	0.028104751	-0.23981206	0.91328982	-0.19793976	-0.19551694	0.91191882	0.33888217	-0.16154996	0.68629554	-0.24988186	0.032513325	0.80368921	0.3503854
203	0.808	0.11548148	-0.039833444	0.01432536	-0.56864023	0.079243374	0.12450834	-0.0068537004	-0.0098422206	-0.0089221558	-0.56563357	0.21664784	0.15620294	-0.0066235391	0.0065475847	0.077774454	-0.52241433	0.20170018	0.078593042	-0.082802265	-0.034617834	0.036224064	-0.58136806	0.26389995	0.092012459	0.061579721	0.35443	-0.049256567	-0.20363897	0.30301815	0.23073482	0.045259145	0.35626219	0.070719129	-0.20401916	0.2894869	0.099310275	-0.10811227	0.71205872	-0.12234746	-0.20001316	0.66319581	0.20736604	-0.054206368	0.74975552	-0.063711302	-0.094828281	0.72652137	0.17764286	-0.26609917	0.80983091	0.037204965	-0.14214025	1.2096125	-0.15148702	-0.14729907	1.2127697	0.21124935	-0.22477605	1.2519145	0.027633789	-0.23162875	0.91413153	-0.19832463	-0.19146553	0.91311341	0.33737611	-0.15064101	0.68773413	-0.24893569	0.035352366	0.8022152	0.35101882
204	0.812	0.11544878	-0.039861881	0.014279752	-0.55213316	0.08133597	0.12601041	-0.0068741236	-0.0098882489	-0.0089606215	-0.55040888	0.21868771	0.15677066	-0.0065665232	0.0066015952	0.077732156	-0.50722508	0.20429936	0.079167536	-0.082838824	-0.034566751	0.036260254	-0.56663322	0.26622052	0.092868707	0.063726907	0.35415466	-0.049417641	-0.18916208	0.30408082	0.23114938	0.045922558	0.35537193	0.070618345	-0.19036101	0.29106957	0.09954419	-0.10254731	0.7135357	-0.12266826	-0.19353914	0.66461711	0.2070658	-0.048933768	0.75107509	-0.064147325	-0.089259945	0.72829622	0.17752266	-0.26048574	0.81151159	0.037478516	-0.13485144	1.2112478	-0.15156936	-0.14163625	1.2143517	0.21119847	-0.21819601	1.2535711	0.027245475	-0.22347965	0.91507907	-0.19873638	-0.18744258	0.91436805	0.33585563	-0.13964933	0.68933741	-0.24786991	0.038039476	0.80083229	0.35159449
205	0.816	0.11541854	-0.039886282	0.014250147	-0.53555103	0.083262279	0.12738645	-0.0068913712	-0.0099023001	-0.0089896994	-0.53514766	0.22047693	0.15733533	-0.0065232824	0.0066657445	0.077694434	-0.49196351	0.20671879	0.079744615	-0.082883187	-0.034544169	0.036341397	-0.55197764	0.26830554	0.093714839	0.065716638	0.3539207	-0.049454801	-0.17462684	0.30548585	0.23147752	0.046147499	0.35481784	0.07053944	-0.17664476	0.292775	0.099618287	-0.096897091	0.71500022	-0.1229801	-0.18732815	0.66607483	0.20710295	-0.043763603	0.7524118	-0.064548247	-0.08370532	0.73013061	0.17740651	-0.25441471	0.81327419	0.038091192	-0.12764626	1.212979	-0.15162704	-0.13605979	1.2160297	0.21119902	-0.2116738	1.2553294	0.026895867	-0.21535871	0.91612487	-0.1991883	-0.18346951	0.91568358	0.33432688	-0.12867142	0.6910696	-0.24674306	0.040495302	0.79953563	0.35210549
206	0.82	0.1153883	-0.039908848	0.014235766	-0.51895269	0.085064813	0.12867228	-0.0069219702	-0.0098938418	-0.0090236375	-0.51981652	0.22215142	0.15792981	-0.0065067063	0.0067379334	0.077658656	-0.47666088	0.20893106	0.080264101	-0.082938045	-0.034555241	0.036468767	-0.53743471	0.2701437	0.094514365	0.067577322	0.3536991	-0.049350904	-0.16005169	0.30719478	0.23172402	0.046325282	0.35462584	0.070584377	-0.16288923	0.2946007	0.09955561	-0.091291228	0.71642755	-0.12328544	-0.18121386	0.66768394	0.20715934	-0.038576281	0.75378614	-0.064949025	-0.078152674	0.73201666	0.17728888	-0.24825998	0.8151088	0.038587023	-0.12053265	1.2148029	-0.15166179	-0.13055823	1.2177907	0.21124909	-0.20518393	1.2571845	0.026577498	-0.20725613	0.91726065	-0.19968022	-0.17958098	0.91706644	0.33279325	-0.11773332	0.69291462	-0.2455863	0.04270775	0.79832182	0.35255807
207	0.824	0.11535615	-0.039929225	0.014235843	-0.50238063	0.08674254	0.12988034	-0.0069885251	-0.0098642169	-0.0090828325	-0.5043823	0.22378662	0.15859487	-0.006550172	0.0068050295	0.077631642	-0.46130955	0.21090983	0.080720444	-0.082994917	-0.034558634	0.036571544	-0.52296982	0.2717414	0.095276832	0.06932321	0.35348969	-0.049114222	-0.14545333	0.30918303	0.23189938	0.046632253	0.35473547	0.07079552	-0.14910337	0.29655521	0.099407223	-0.085816424	0.71781973	-0.12360153	-0.17506723	0.66954191	0.20698377	-0.033289509	0.75521788	-0.065368532	-0.072601002	0.73395797	0.17716451	-0.2423595	0.81697183	0.038849061	-0.11352187	1.216714	-0.15167172	-0.12511793	1.2196258	0.21134001	-0.19872263	1.2591255	0.026300644	-0.19916891	0.91847752	-0.20020024	-0.17578355	0.91851889	0.33126074	-0.10682231	0.69487256	-0.24440502	0.044753793	0.79719285	0.35296004
208	0.828	0.11532423	-0.039946397	0.014249183	-0.48581803	0.08828478	0.13098433	-0.0070848659	-0.0098091248	-0.0091662962	-0.48883884	0.22537488	0.15934718	-0.0066926803	0.0068440719	0.07762598	-0.44597771	0.21270455	0.081219431	-0.083037405	-0.034496595	0.036560257	-0.5085345	0.27311686	0.096037989	0.070954522	0.35330655	-0.048773966	-0.13084205	0.31143512	0.23201222	0.047030208	0.35503409	0.071133278	-0.13527821	0.29866801	0.099214623	-0.08048682	0.7191896	-0.12395419	-0.16889828	0.67162128	0.20662488	-0.027921119	0.75670298	-0.065804729	-0.067055831	0.73595529	0.17702442	-0.23668013	0.81887775	0.038913233	-0.10662975	1.2187039	-0.1516564	-0.1197209	1.2215297	0.21146011	-0.19229528	1.2611368	0.026069434	-0.1911028	0.91976552	-0.2007374	-0.17203467	0.92003413	0.32974024	-0.095939556	0.69694588	-0.2432006	0.046713632	0.79615096	0.35331964
209	0.832	0.11529667	-0.039960151	0.014271693	-0.46917897	0.089695095	0.13195799	-0.0071743145	-0.0097297325	-0.0092432791	-0.47324932	0.22684192	0.160151	-0.006946809	0.0068420986	0.07764096	-0.43073109	0.21437847	0.081837982	-0.08306093	-0.034371974	0.036449156	-0.49410349	0.27428755	0.096826715	0.072475996	0.35317106	-0.04835593	-0.11622886	0.31394382	0.23206446	0.047386117	0.35540846	0.071512797	-0.12136462	0.30097893	0.099009833	-0.075288645	0.72054464	-0.12435426	-0.16277674	0.67381219	0.20628402	-0.022537371	0.75821442	-0.066246506	-0.061519697	0.73800265	0.17685959	-0.23098708	0.82088129	0.038935834	-0.099870876	1.2207629	-0.15162028	-0.1143482	1.2234963	0.21159915	-0.18591047	1.2631967	0.025878272	-0.18306482	0.92111506	-0.20128975	-0.16829271	0.92160829	0.32824626	-0.085107126	0.69912707	-0.24197781	0.048605669	0.79519463	0.35364554
210	0.836	0.11527481	-0.039969728	0.014295593	-0.45235492	0.090996651	0.13281908	-0.0072312827	-0.0096385101	-0.009285978	-0.45773866	0.22809149	0.16093375	-0.0072567945	0.0068251003	0.077648531	-0.41553492	0.21594383	0.082529669	-0.083077153	-0.034251392	0.036355631	-0.47967102	0.27525583	0.097645808	0.073894866	0.35310783	-0.0478786	-0.10162879	0.31670862	0.23205454	0.047626052	0.35578625	0.071872799	-0.10733397	0.30352757	0.098801894	-0.070229904	0.72189106	-0.12477626	-0.15673273	0.67602703	0.20608631	-0.01719424	0.75972488	-0.066685403	-0.055988752	0.74009459	0.17666505	-0.22518527	0.82299527	0.039004922	-0.09323713	1.2228836	-0.15156369	-0.10898614	1.2255163	0.2117489	-0.1795732	1.2652883	0.025720666	-0.17505793	0.92251892	-0.20186226	-0.16455799	0.92325433	0.32679326	-0.074337657	0.70140149	-0.24073587	0.050410344	0.79432143	0.35394581
211	0.84	0.11525424	-0.03997578	0.01431428	-0.43526941	0.092219396	0.13362694	-0.007261444	-0.0095487711	-0.0092954274	-0.44240101	0.22906466	0.16164545	-0.0075266803	0.0068460782	0.077614374	-0.40030801	0.21739023	0.083218939	-0.083095194	-0.034183506	0.036369382	-0.46524712	0.27601205	0.098479924	0.075190447	0.35313327	-0.047376926	-0.087059471	0.31972927	0.23198027	0.047788237	0.35614752	0.072208058	-0.093253259	0.30633612	0.098563376	-0.065318927	0.72324187	-0.12516455	-0.15074379	0.67825032	0.20602486	-0.011914152	0.76122394	-0.067125757	-0.050458071	0.74223096	0.176439	-0.21933554	0.82517461	0.03903075	-0.08669168	1.2250595	-0.15147897	-0.10362469	1.2275811	0.21190229	-0.17328115	1.2674062	0.025594471	-0.16708135	0.92397405	-0.20245767	-0.16084382	0.92499621	0.32539383	-0.063599649	0.70376665	-0.23946082	0.052110563	0.79352915	0.35422703
212	0.844	0.11522531	-0.039983993	0.014327812	-0.41789347	0.093374961	0.13444689	-0.0072851962	-0.0094617374	-0.0092938617	-0.42720709	0.22978121	0.1622995	-0.0077144734	0.0069312104	0.077535496	-0.38499972	0.21872214	0.083883324	-0.083113822	-0.034145945	0.036458369	-0.45087001	0.27654895	0.099313454	0.076321301	0.3532444	-0.0469004	-0.072540655	0.32300237	0.23184059	0.047951551	0.35650019	0.072537916	-0.079229766	0.30938271	0.098262696	-0.060522215	0.72461414	-0.12546923	-0.14477127	0.68052018	0.20604231	-0.0066871601	0.76271766	-0.067584186	-0.044921276	0.74441478	0.17618557	-0.21349205	0.82737134	0.038899886	-0.080195278	1.2272787	-0.15135969	-0.09825172	1.229683	0.2120531	-0.16702625	1.2695491	0.025499295	-0.15913263	0.92547944	-0.20307056	-0.15713611	0.92684736	0.32405813	-0.052825462	0.70624124	-0.2381326	0.053702777	0.79281344	0.35449312
213	0.848	0.11517971	-0.039999299	0.014337487	-0.40023179	0.094441335	0.1353219	-0.0073246649	-0.009364593	-0.009310852	-0.41201504	0.23032861	0.16295379	-0.0078448707	0.007064526	0.07744002	-0.36959511	0.21995051	0.084538718	-0.08313637	-0.034078246	0.036499013	-0.43659269	0.27685701	0.1001362	0.077270882	0.35342647	-0.046478662	-0.058091772	0.32652102	0.23163759	0.048158543	0.35684848	0.072864179	-0.065293253	0.31262193	0.097893524	-0.055816918	0.72601872	-0.1256861	-0.13877726	0.68288197	0.20610418	-0.00149206	0.76422108	-0.068074103	-0.039367461	0.74664896	0.17591204	-0.20766154	0.82957728	0.038594513	-0.073724471	1.229521	-0.15120228	-0.092854347	1.2318152	0.2121962	-0.16079863	1.2717142	0.025434834	-0.15120944	0.92703188	-0.20368919	-0.15341049	0.92880314	0.32279065	-0.041967655	0.70884724	-0.23673462	0.055194302	0.79216906	0.35474578
